<svg width="114" height="50" viewBox="0 0 114 50" fill="none" xmlns="http://www.w3.org/2000/svg">
<path d="M35.1012 17.2762V38.739H31V17.2762H35.1012Z" fill="url(#paint0_linear)"/>
<path d="M42.4634 26.0063V33.7793C42.4634 34.3207 42.5904 34.7171 42.8443 34.9685C43.1177 35.2005 43.5669 35.3165 44.1918 35.3165H46.0959V38.739H43.518C40.0613 38.739 38.3329 37.0761 38.3329 33.7503V26.0063H36.3995V22.6709H38.3329V18.6974H42.4634V22.6709H46.0959V26.0063H42.4634Z" fill="url(#paint1_linear)"/>
<path d="M49.6609 20.7566C48.9383 20.7566 48.3329 20.5343 47.8447 20.0895C47.3759 19.6255 47.1416 19.0551 47.1416 18.3783C47.1416 17.7016 47.3759 17.1408 47.8447 16.6961C48.3329 16.232 48.9383 16 49.6609 16C50.3835 16 50.9791 16.232 51.4478 16.6961C51.9361 17.1408 52.1802 17.7016 52.1802 18.3783C52.1802 19.0551 51.9361 19.6255 51.4478 20.0895C50.9791 20.5343 50.3835 20.7566 49.6609 20.7566ZM51.6822 22.6709V38.739H47.581V22.6709H51.6822Z" fill="url(#paint2_linear)"/>
<path d="M74.4239 22.4388C76.4159 22.4388 78.0173 23.0479 79.2282 24.2661C80.4585 25.4649 81.0737 27.1471 81.0737 29.3127V38.739H76.9725V29.8638C76.9725 28.607 76.6503 27.6499 76.0058 26.9924C75.3613 26.3157 74.4825 25.9773 73.3693 25.9773C72.2561 25.9773 71.3676 26.3157 70.7035 26.9924C70.0591 27.6499 69.7368 28.607 69.7368 29.8638V38.739H65.6356V29.8638C65.6356 28.607 65.3134 27.6499 64.6689 26.9924C64.0245 26.3157 63.1456 25.9773 62.0325 25.9773C60.8997 25.9773 60.0014 26.3157 59.3374 26.9924C58.6929 27.6499 58.3707 28.607 58.3707 29.8638V38.739H54.2695V22.6709H58.3707V24.6141C58.898 23.9374 59.5717 23.4056 60.392 23.0189C61.2317 22.6322 62.1496 22.4388 63.1456 22.4388C64.4151 22.4388 65.5478 22.7095 66.5438 23.2509C67.5398 23.773 68.3112 24.5271 68.858 25.5132C69.3853 24.5851 70.147 23.8407 71.143 23.2799C72.1585 22.7192 73.2522 22.4388 74.4239 22.4388Z" fill="url(#paint3_linear)"/>
<path d="M98.8217 22.6709V38.739H94.6912V36.7087C94.1639 37.4048 93.4706 37.9559 92.6113 38.3619C91.7715 38.7486 90.8537 38.942 89.8576 38.942C88.5882 38.942 87.4653 38.681 86.4888 38.1589C85.5123 37.6175 84.7409 36.8344 84.1746 35.8096C83.6277 34.7654 83.3543 33.528 83.3543 32.0971V22.6709H87.4555V31.517C87.4555 32.7932 87.7778 33.7793 88.4222 34.4754C89.0667 35.1522 89.9455 35.4905 91.0587 35.4905C92.1914 35.4905 93.08 35.1522 93.7245 34.4754C94.369 33.7793 94.6912 32.7932 94.6912 31.517V22.6709H98.8217Z" fill="url(#paint4_linear)"/>
<path d="M107.614 39C106.286 39 105.095 38.768 104.04 38.3039C102.985 37.8205 102.146 37.1728 101.521 36.3607C100.915 35.5485 100.583 34.6494 100.525 33.6633H104.655C104.733 34.282 105.036 34.7945 105.563 35.2005C106.11 35.6066 106.784 35.8096 107.585 35.8096C108.366 35.8096 108.971 35.6549 109.401 35.3455C109.85 35.0361 110.075 34.6398 110.075 34.1564C110.075 33.6343 109.801 33.2476 109.254 32.9962C108.727 32.7255 107.878 32.4355 106.706 32.1261C105.495 31.8361 104.499 31.5364 103.718 31.227C102.956 30.9176 102.292 30.4439 101.726 29.8058C101.179 29.1677 100.905 28.3073 100.905 27.2245C100.905 26.335 101.159 25.5229 101.667 24.7881C102.194 24.0534 102.937 23.4733 103.893 23.0479C104.87 22.6225 106.012 22.4098 107.321 22.4098C109.254 22.4098 110.797 22.8932 111.949 23.86C113.102 24.8075 113.736 26.0933 113.854 27.7175H109.928C109.87 27.0794 109.596 26.5767 109.108 26.2093C108.639 25.8226 108.004 25.6293 107.204 25.6293C106.462 25.6293 105.885 25.7646 105.475 26.0353C105.085 26.306 104.889 26.6831 104.889 27.1665C104.889 27.7079 105.163 28.1236 105.71 28.4136C106.257 28.6843 107.106 28.9647 108.258 29.2547C109.43 29.5448 110.397 29.8445 111.158 30.1538C111.92 30.4632 112.574 30.9466 113.121 31.604C113.688 32.2421 113.98 33.0929 114 34.1564C114 35.0845 113.736 35.9159 113.209 36.6507C112.701 37.3855 111.959 37.9655 110.983 38.3909C110.026 38.797 108.903 39 107.614 39Z" fill="url(#paint5_linear)"/>
<path d="M29 39L14.1081 0L7.05405 19.5L0 39C7.05405 31.3529 6.36248 21.4118 29 39Z" fill="url(#paint6_linear)"/>
<path d="M32.752 48.042C32.476 48.042 32.232 47.994 32.02 47.898C31.812 47.802 31.648 47.668 31.528 47.496C31.408 47.324 31.344 47.132 31.336 46.92H31.78C31.8 47.124 31.89 47.304 32.05 47.46C32.21 47.612 32.444 47.688 32.752 47.688C33.036 47.688 33.26 47.616 33.424 47.472C33.592 47.324 33.676 47.138 33.676 46.914C33.676 46.734 33.63 46.59 33.538 46.482C33.446 46.37 33.332 46.288 33.196 46.236C33.06 46.18 32.872 46.12 32.632 46.056C32.352 45.98 32.13 45.906 31.966 45.834C31.802 45.762 31.662 45.65 31.546 45.498C31.43 45.346 31.372 45.14 31.372 44.88C31.372 44.664 31.428 44.472 31.54 44.304C31.652 44.132 31.81 43.998 32.014 43.902C32.218 43.806 32.452 43.758 32.716 43.758C33.104 43.758 33.416 43.854 33.652 44.046C33.892 44.234 34.03 44.478 34.066 44.778H33.61C33.582 44.606 33.488 44.454 33.328 44.322C33.168 44.186 32.952 44.118 32.68 44.118C32.428 44.118 32.218 44.186 32.05 44.322C31.882 44.454 31.798 44.636 31.798 44.868C31.798 45.044 31.844 45.186 31.936 45.294C32.028 45.402 32.142 45.484 32.278 45.54C32.418 45.596 32.606 45.656 32.842 45.72C33.114 45.796 33.334 45.872 33.502 45.948C33.67 46.02 33.812 46.132 33.928 46.284C34.044 46.436 34.102 46.64 34.102 46.896C34.102 47.092 34.05 47.278 33.946 47.454C33.842 47.63 33.688 47.772 33.484 47.88C33.28 47.988 33.036 48.042 32.752 48.042Z" fill="url(#paint7_linear)"/>
<path d="M34.7636 44.106C34.6796 44.106 34.6076 44.076 34.5476 44.016C34.4876 43.956 34.4576 43.882 34.4576 43.794C34.4576 43.706 34.4876 43.634 34.5476 43.578C34.6076 43.518 34.6796 43.488 34.7636 43.488C34.8476 43.488 34.9196 43.518 34.9796 43.578C35.0396 43.634 35.0696 43.706 35.0696 43.794C35.0696 43.882 35.0396 43.956 34.9796 44.016C34.9196 44.076 34.8476 44.106 34.7636 44.106ZM34.9736 44.724V48H34.5536V44.724H34.9736Z" fill="url(#paint8_linear)"/>
<path d="M36.6927 48.048C36.3167 48.048 36.0087 47.962 35.7687 47.79C35.5327 47.614 35.4007 47.376 35.3727 47.076H35.8047C35.8247 47.26 35.9107 47.41 36.0627 47.526C36.2187 47.638 36.4267 47.694 36.6867 47.694C36.9147 47.694 37.0927 47.64 37.2207 47.532C37.3527 47.424 37.4187 47.29 37.4187 47.13C37.4187 47.018 37.3827 46.926 37.3107 46.854C37.2387 46.782 37.1467 46.726 37.0347 46.686C36.9267 46.642 36.7787 46.596 36.5907 46.548C36.3467 46.484 36.1487 46.42 35.9967 46.356C35.8447 46.292 35.7147 46.198 35.6067 46.074C35.5027 45.946 35.4507 45.776 35.4507 45.564C35.4507 45.404 35.4987 45.256 35.5947 45.12C35.6907 44.984 35.8267 44.876 36.0027 44.796C36.1787 44.716 36.3787 44.676 36.6027 44.676C36.9547 44.676 37.2387 44.766 37.4547 44.946C37.6707 45.122 37.7867 45.366 37.8027 45.678H37.3827C37.3707 45.486 37.2947 45.332 37.1547 45.216C37.0187 45.096 36.8307 45.036 36.5907 45.036C36.3787 45.036 36.2067 45.086 36.0747 45.186C35.9427 45.286 35.8767 45.41 35.8767 45.558C35.8767 45.686 35.9147 45.792 35.9907 45.876C36.0707 45.956 36.1687 46.02 36.2847 46.068C36.4007 46.112 36.5567 46.162 36.7527 46.218C36.9887 46.282 37.1767 46.344 37.3167 46.404C37.4567 46.464 37.5767 46.552 37.6767 46.668C37.7767 46.784 37.8287 46.938 37.8327 47.13C37.8327 47.306 37.7847 47.464 37.6887 47.604C37.5927 47.74 37.4587 47.848 37.2867 47.928C37.1147 48.008 36.9167 48.048 36.6927 48.048Z" fill="url(#paint9_linear)"/>
<path d="M38.8093 45.078V47.112C38.8093 47.312 38.8473 47.45 38.9233 47.526C38.9993 47.602 39.1333 47.64 39.3253 47.64H39.7093V48H39.2593C38.9633 48 38.7433 47.932 38.5993 47.796C38.4553 47.656 38.3833 47.428 38.3833 47.112V45.078H37.9273V44.724H38.3833V43.902H38.8093V44.724H39.7093V45.078H38.8093Z" fill="url(#paint10_linear)"/>
<path d="M43.006 46.194C43.006 46.338 43.002 46.448 42.994 46.524H40.276C40.288 46.772 40.348 46.984 40.456 47.16C40.564 47.336 40.706 47.47 40.882 47.562C41.058 47.65 41.25 47.694 41.458 47.694C41.73 47.694 41.958 47.628 42.142 47.496C42.33 47.364 42.454 47.186 42.514 46.962H42.958C42.878 47.282 42.706 47.544 42.442 47.748C42.182 47.948 41.854 48.048 41.458 48.048C41.15 48.048 40.874 47.98 40.63 47.844C40.386 47.704 40.194 47.508 40.054 47.256C39.918 47 39.85 46.702 39.85 46.362C39.85 46.022 39.918 45.724 40.054 45.468C40.19 45.212 40.38 45.016 40.624 44.88C40.868 44.744 41.146 44.676 41.458 44.676C41.77 44.676 42.042 44.744 42.274 44.88C42.51 45.016 42.69 45.2 42.814 45.432C42.942 45.66 43.006 45.914 43.006 46.194ZM42.58 46.182C42.584 45.938 42.534 45.73 42.43 45.558C42.33 45.386 42.192 45.256 42.016 45.168C41.84 45.08 41.648 45.036 41.44 45.036C41.128 45.036 40.862 45.136 40.642 45.336C40.422 45.536 40.3 45.818 40.276 46.182H42.58Z" fill="url(#paint11_linear)"/>
<path d="M47.3144 44.664C47.6984 44.664 48.0104 44.786 48.2504 45.03C48.4944 45.27 48.6164 45.62 48.6164 46.08V48H48.2024V46.128C48.2024 45.772 48.1164 45.5 47.9444 45.312C47.7724 45.124 47.5384 45.03 47.2424 45.03C46.9344 45.03 46.6884 45.132 46.5044 45.336C46.3204 45.54 46.2284 45.836 46.2284 46.224V48H45.8144V46.128C45.8144 45.772 45.7284 45.5 45.5564 45.312C45.3844 45.124 45.1484 45.03 44.8484 45.03C44.5404 45.03 44.2944 45.132 44.1104 45.336C43.9264 45.54 43.8344 45.836 43.8344 46.224V48H43.4144V44.724H43.8344V45.288C43.9384 45.084 44.0864 44.93 44.2784 44.826C44.4704 44.718 44.6844 44.664 44.9204 44.664C45.2044 44.664 45.4524 44.732 45.6644 44.868C45.8804 45.004 46.0364 45.204 46.1324 45.468C46.2204 45.208 46.3704 45.01 46.5824 44.874C46.7984 44.734 47.0424 44.664 47.3144 44.664Z" fill="url(#paint12_linear)"/>
<path d="M48.9971 46.356C48.9971 46.02 49.0631 45.726 49.1951 45.474C49.3311 45.218 49.5171 45.022 49.7531 44.886C49.9931 44.746 50.2631 44.676 50.5631 44.676C50.8751 44.676 51.1431 44.748 51.3671 44.892C51.5951 45.036 51.7591 45.22 51.8591 45.444V44.724H52.2791V48H51.8591V47.274C51.7551 47.498 51.5891 47.684 51.3611 47.832C51.1371 47.976 50.8691 48.048 50.5571 48.048C50.2611 48.048 49.9931 47.978 49.7531 47.838C49.5171 47.698 49.3311 47.5 49.1951 47.244C49.0631 46.988 48.9971 46.692 48.9971 46.356ZM51.8591 46.362C51.8591 46.098 51.8051 45.866 51.6971 45.666C51.5891 45.466 51.4411 45.312 51.2531 45.204C51.0691 45.096 50.8651 45.042 50.6411 45.042C50.4091 45.042 50.2011 45.094 50.0171 45.198C49.8331 45.302 49.6871 45.454 49.5791 45.654C49.4751 45.85 49.4231 46.084 49.4231 46.356C49.4231 46.624 49.4751 46.86 49.5791 47.064C49.6871 47.264 49.8331 47.418 50.0171 47.526C50.2011 47.63 50.4091 47.682 50.6411 47.682C50.8651 47.682 51.0691 47.628 51.2531 47.52C51.4411 47.412 51.5891 47.258 51.6971 47.058C51.8051 46.858 51.8591 46.626 51.8591 46.362Z" fill="url(#paint13_linear)"/>
<path d="M54.006 48.048C53.63 48.048 53.322 47.962 53.082 47.79C52.846 47.614 52.714 47.376 52.686 47.076H53.118C53.138 47.26 53.224 47.41 53.376 47.526C53.532 47.638 53.74 47.694 54 47.694C54.228 47.694 54.406 47.64 54.534 47.532C54.666 47.424 54.732 47.29 54.732 47.13C54.732 47.018 54.696 46.926 54.624 46.854C54.552 46.782 54.46 46.726 54.348 46.686C54.24 46.642 54.092 46.596 53.904 46.548C53.66 46.484 53.462 46.42 53.31 46.356C53.158 46.292 53.028 46.198 52.92 46.074C52.816 45.946 52.764 45.776 52.764 45.564C52.764 45.404 52.812 45.256 52.908 45.12C53.004 44.984 53.14 44.876 53.316 44.796C53.492 44.716 53.692 44.676 53.916 44.676C54.268 44.676 54.552 44.766 54.768 44.946C54.984 45.122 55.1 45.366 55.116 45.678H54.696C54.684 45.486 54.608 45.332 54.468 45.216C54.332 45.096 54.144 45.036 53.904 45.036C53.692 45.036 53.52 45.086 53.388 45.186C53.256 45.286 53.19 45.41 53.19 45.558C53.19 45.686 53.228 45.792 53.304 45.876C53.384 45.956 53.482 46.02 53.598 46.068C53.714 46.112 53.87 46.162 54.066 46.218C54.302 46.282 54.49 46.344 54.63 46.404C54.77 46.464 54.89 46.552 54.99 46.668C55.09 46.784 55.142 46.938 55.146 47.13C55.146 47.306 55.098 47.464 55.002 47.604C54.906 47.74 54.772 47.848 54.6 47.928C54.428 48.008 54.23 48.048 54.006 48.048Z" fill="url(#paint14_linear)"/>
<path d="M57.277 45.444C57.381 45.224 57.545 45.042 57.769 44.898C57.997 44.75 58.267 44.676 58.579 44.676C58.875 44.676 59.141 44.746 59.377 44.886C59.617 45.022 59.803 45.218 59.935 45.474C60.071 45.726 60.139 46.02 60.139 46.356C60.139 46.692 60.071 46.988 59.935 47.244C59.803 47.5 59.617 47.698 59.377 47.838C59.141 47.978 58.875 48.048 58.579 48.048C58.271 48.048 58.003 47.976 57.775 47.832C57.547 47.684 57.381 47.5 57.277 47.28V49.548H56.863V44.724H57.277V45.444ZM59.713 46.356C59.713 46.084 59.659 45.85 59.551 45.654C59.447 45.454 59.303 45.302 59.119 45.198C58.935 45.094 58.727 45.042 58.495 45.042C58.271 45.042 58.065 45.096 57.877 45.204C57.693 45.312 57.547 45.466 57.439 45.666C57.331 45.866 57.277 46.098 57.277 46.362C57.277 46.626 57.331 46.858 57.439 47.058C57.547 47.258 57.693 47.412 57.877 47.52C58.065 47.628 58.271 47.682 58.495 47.682C58.727 47.682 58.935 47.63 59.119 47.526C59.303 47.418 59.447 47.264 59.551 47.064C59.659 46.86 59.713 46.624 59.713 46.356Z" fill="url(#paint15_linear)"/>
<path d="M60.3599 46.356C60.3599 46.02 60.4259 45.726 60.5579 45.474C60.6939 45.218 60.8799 45.022 61.1159 44.886C61.3559 44.746 61.6259 44.676 61.9259 44.676C62.2379 44.676 62.5059 44.748 62.7299 44.892C62.9579 45.036 63.1219 45.22 63.2219 45.444V44.724H63.6419V48H63.2219V47.274C63.1179 47.498 62.9519 47.684 62.7239 47.832C62.4999 47.976 62.2319 48.048 61.9199 48.048C61.6239 48.048 61.3559 47.978 61.1159 47.838C60.8799 47.698 60.6939 47.5 60.5579 47.244C60.4259 46.988 60.3599 46.692 60.3599 46.356ZM63.2219 46.362C63.2219 46.098 63.1679 45.866 63.0599 45.666C62.9519 45.466 62.8039 45.312 62.6159 45.204C62.4319 45.096 62.2279 45.042 62.0039 45.042C61.7719 45.042 61.5639 45.094 61.3799 45.198C61.1959 45.302 61.0499 45.454 60.9419 45.654C60.8379 45.85 60.7859 46.084 60.7859 46.356C60.7859 46.624 60.8379 46.86 60.9419 47.064C61.0499 47.264 61.1959 47.418 61.3799 47.526C61.5639 47.63 61.7719 47.682 62.0039 47.682C62.2279 47.682 62.4319 47.628 62.6159 47.52C62.8039 47.412 62.9519 47.258 63.0599 47.058C63.1679 46.858 63.2219 46.626 63.2219 46.362Z" fill="url(#paint16_linear)"/>
<path d="M64.6607 45.306C64.7527 45.102 64.8927 44.944 65.0807 44.832C65.2727 44.72 65.5067 44.664 65.7827 44.664V45.102H65.6687C65.3647 45.102 65.1207 45.184 64.9367 45.348C64.7527 45.512 64.6607 45.786 64.6607 46.17V48H64.2407V44.724H64.6607V45.306Z" fill="url(#paint17_linear)"/>
<path d="M65.8625 46.356C65.8625 46.02 65.9285 45.726 66.0605 45.474C66.1965 45.218 66.3825 45.022 66.6185 44.886C66.8585 44.746 67.1285 44.676 67.4285 44.676C67.7405 44.676 68.0085 44.748 68.2325 44.892C68.4605 45.036 68.6245 45.22 68.7245 45.444V44.724H69.1445V48H68.7245V47.274C68.6205 47.498 68.4545 47.684 68.2265 47.832C68.0025 47.976 67.7345 48.048 67.4225 48.048C67.1265 48.048 66.8585 47.978 66.6185 47.838C66.3825 47.698 66.1965 47.5 66.0605 47.244C65.9285 46.988 65.8625 46.692 65.8625 46.356ZM68.7245 46.362C68.7245 46.098 68.6705 45.866 68.5625 45.666C68.4545 45.466 68.3065 45.312 68.1185 45.204C67.9345 45.096 67.7305 45.042 67.5065 45.042C67.2745 45.042 67.0665 45.094 66.8825 45.198C66.6985 45.302 66.5525 45.454 66.4445 45.654C66.3405 45.85 66.2885 46.084 66.2885 46.356C66.2885 46.624 66.3405 46.86 66.4445 47.064C66.5525 47.264 66.6985 47.418 66.8825 47.526C67.0665 47.63 67.2745 47.682 67.5065 47.682C67.7305 47.682 67.9345 47.628 68.1185 47.52C68.3065 47.412 68.4545 47.258 68.5625 47.058C68.6705 46.858 68.7245 46.626 68.7245 46.362Z" fill="url(#paint18_linear)"/>
<path d="M71.4498 47.658H72.9558V48H71.0298V43.806H71.4498V47.658Z" fill="url(#paint19_linear)"/>
<path d="M74.6292 48.048C74.3212 48.048 74.0432 47.98 73.7952 47.844C73.5512 47.704 73.3572 47.508 73.2132 47.256C73.0732 47 73.0032 46.702 73.0032 46.362C73.0032 46.022 73.0752 45.726 73.2192 45.474C73.3632 45.218 73.5592 45.022 73.8072 44.886C74.0552 44.746 74.3332 44.676 74.6412 44.676C74.9492 44.676 75.2272 44.746 75.4752 44.886C75.7272 45.022 75.9232 45.218 76.0632 45.474C76.2072 45.726 76.2792 46.022 76.2792 46.362C76.2792 46.698 76.2072 46.994 76.0632 47.25C75.9192 47.506 75.7212 47.704 75.4692 47.844C75.2172 47.98 74.9372 48.048 74.6292 48.048ZM74.6292 47.682C74.8452 47.682 75.0452 47.634 75.2292 47.538C75.4132 47.438 75.5612 47.29 75.6732 47.094C75.7892 46.894 75.8472 46.65 75.8472 46.362C75.8472 46.074 75.7912 45.832 75.6792 45.636C75.5672 45.436 75.4192 45.288 75.2352 45.192C75.0512 45.092 74.8512 45.042 74.6352 45.042C74.4192 45.042 74.2192 45.092 74.0352 45.192C73.8512 45.288 73.7032 45.436 73.5912 45.636C73.4832 45.832 73.4292 46.074 73.4292 46.362C73.4292 46.65 73.4832 46.894 73.5912 47.094C73.7032 47.29 73.8492 47.438 74.0292 47.538C74.2132 47.634 74.4132 47.682 74.6292 47.682Z" fill="url(#paint20_linear)"/>
<path d="M76.9248 44.106C76.8408 44.106 76.7688 44.076 76.7088 44.016C76.6488 43.956 76.6188 43.882 76.6188 43.794C76.6188 43.706 76.6488 43.634 76.7088 43.578C76.7688 43.518 76.8408 43.488 76.9248 43.488C77.0088 43.488 77.0788 43.518 77.1348 43.578C77.1948 43.634 77.2248 43.706 77.2248 43.794C77.2248 43.882 77.1948 43.956 77.1348 44.016C77.0788 44.076 77.0088 44.106 76.9248 44.106ZM77.1288 48.774C77.1288 49.038 77.0628 49.232 76.9308 49.356C76.7988 49.484 76.6008 49.548 76.3368 49.548H76.0428V49.188H76.2708C76.4268 49.188 76.5388 49.154 76.6068 49.086C76.6748 49.022 76.7088 48.912 76.7088 48.756V44.724H77.1288V48.774Z" fill="url(#paint21_linear)"/>
<path d="M77.5391 46.356C77.5391 46.02 77.6051 45.726 77.7371 45.474C77.8731 45.218 78.0591 45.022 78.2951 44.886C78.5351 44.746 78.8051 44.676 79.1051 44.676C79.4171 44.676 79.6851 44.748 79.9091 44.892C80.1371 45.036 80.3011 45.22 80.4011 45.444V44.724H80.8211V48H80.4011V47.274C80.2971 47.498 80.1311 47.684 79.9031 47.832C79.6791 47.976 79.4111 48.048 79.0991 48.048C78.8031 48.048 78.5351 47.978 78.2951 47.838C78.0591 47.698 77.8731 47.5 77.7371 47.244C77.6051 46.988 77.5391 46.692 77.5391 46.356ZM80.4011 46.362C80.4011 46.098 80.3471 45.866 80.2391 45.666C80.1311 45.466 79.9831 45.312 79.7951 45.204C79.6111 45.096 79.4071 45.042 79.1831 45.042C78.9511 45.042 78.7431 45.094 78.5591 45.198C78.3751 45.302 78.2291 45.454 78.1211 45.654C78.0171 45.85 77.9651 46.084 77.9651 46.356C77.9651 46.624 78.0171 46.86 78.1211 47.064C78.2291 47.264 78.3751 47.418 78.5591 47.526C78.7431 47.63 78.9511 47.682 79.1831 47.682C79.4071 47.682 79.6111 47.628 79.7951 47.52C79.9831 47.412 80.1311 47.258 80.2391 47.058C80.3471 46.858 80.4011 46.626 80.4011 46.362Z" fill="url(#paint22_linear)"/>
<path d="M82.5144 46.356C82.5144 46.02 82.5824 45.726 82.7184 45.474C82.8544 45.218 83.0404 45.022 83.2764 44.886C83.5164 44.746 83.7864 44.676 84.0864 44.676C84.3744 44.676 84.6344 44.746 84.8664 44.886C85.0984 45.026 85.2684 45.208 85.3764 45.432V43.56H85.7964V48H85.3764V47.268C85.2764 47.496 85.1124 47.684 84.8844 47.832C84.6564 47.976 84.3884 48.048 84.0804 48.048C83.7804 48.048 83.5104 47.978 83.2704 47.838C83.0344 47.698 82.8484 47.5 82.7124 47.244C82.5804 46.988 82.5144 46.692 82.5144 46.356ZM85.3764 46.362C85.3764 46.098 85.3224 45.866 85.2144 45.666C85.1064 45.466 84.9584 45.312 84.7704 45.204C84.5864 45.096 84.3824 45.042 84.1584 45.042C83.9264 45.042 83.7184 45.094 83.5344 45.198C83.3504 45.302 83.2044 45.454 83.0964 45.654C82.9924 45.85 82.9404 46.084 82.9404 46.356C82.9404 46.624 82.9924 46.86 83.0964 47.064C83.2044 47.264 83.3504 47.418 83.5344 47.526C83.7184 47.63 83.9264 47.682 84.1584 47.682C84.3824 47.682 84.5864 47.628 84.7704 47.52C84.9584 47.412 85.1064 47.258 85.2144 47.058C85.3224 46.858 85.3764 46.626 85.3764 46.362Z" fill="url(#paint23_linear)"/>
<path d="M89.3592 46.194C89.3592 46.338 89.3552 46.448 89.3472 46.524H86.6292C86.6412 46.772 86.7012 46.984 86.8092 47.16C86.9172 47.336 87.0592 47.47 87.2352 47.562C87.4112 47.65 87.6032 47.694 87.8112 47.694C88.0832 47.694 88.3112 47.628 88.4952 47.496C88.6832 47.364 88.8072 47.186 88.8672 46.962H89.3112C89.2312 47.282 89.0592 47.544 88.7952 47.748C88.5352 47.948 88.2072 48.048 87.8112 48.048C87.5032 48.048 87.2272 47.98 86.9832 47.844C86.7392 47.704 86.5472 47.508 86.4072 47.256C86.2712 47 86.2032 46.702 86.2032 46.362C86.2032 46.022 86.2712 45.724 86.4072 45.468C86.5432 45.212 86.7332 45.016 86.9772 44.88C87.2212 44.744 87.4992 44.676 87.8112 44.676C88.1232 44.676 88.3952 44.744 88.6272 44.88C88.8632 45.016 89.0432 45.2 89.1672 45.432C89.2952 45.66 89.3592 45.914 89.3592 46.194ZM88.9332 46.182C88.9372 45.938 88.8872 45.73 88.7832 45.558C88.6832 45.386 88.5452 45.256 88.3692 45.168C88.1932 45.08 88.0012 45.036 87.7932 45.036C87.4812 45.036 87.2152 45.136 86.9952 45.336C86.7752 45.536 86.6532 45.818 86.6292 46.182H88.9332Z" fill="url(#paint24_linear)"/>
<path d="M94.3781 43.806L92.7881 48H92.3081L90.7181 43.806H91.1741L92.5481 47.544L93.9341 43.806H94.3781Z" fill="url(#paint25_linear)"/>
<path d="M97.6132 46.194C97.6132 46.338 97.6092 46.448 97.6012 46.524H94.8832C94.8952 46.772 94.9552 46.984 95.0632 47.16C95.1712 47.336 95.3132 47.47 95.4892 47.562C95.6652 47.65 95.8572 47.694 96.0652 47.694C96.3372 47.694 96.5652 47.628 96.7492 47.496C96.9372 47.364 97.0612 47.186 97.1212 46.962H97.5652C97.4852 47.282 97.3132 47.544 97.0492 47.748C96.7892 47.948 96.4612 48.048 96.0652 48.048C95.7572 48.048 95.4812 47.98 95.2372 47.844C94.9932 47.704 94.8012 47.508 94.6612 47.256C94.5252 47 94.4572 46.702 94.4572 46.362C94.4572 46.022 94.5252 45.724 94.6612 45.468C94.7972 45.212 94.9872 45.016 95.2312 44.88C95.4752 44.744 95.7532 44.676 96.0652 44.676C96.3772 44.676 96.6492 44.744 96.8812 44.88C97.1172 45.016 97.2972 45.2 97.4212 45.432C97.5492 45.66 97.6132 45.914 97.6132 46.194ZM97.1872 46.182C97.1912 45.938 97.1412 45.73 97.0372 45.558C96.9372 45.386 96.7992 45.256 96.6232 45.168C96.4472 45.08 96.2552 45.036 96.0472 45.036C95.7352 45.036 95.4692 45.136 95.2492 45.336C95.0292 45.536 94.9072 45.818 94.8832 46.182H97.1872Z" fill="url(#paint26_linear)"/>
<path d="M98.4416 44.724V48H98.0216V44.724H98.4416ZM98.7836 43.758L97.5536 44.472V44.148L98.7836 43.38V43.758Z" fill="url(#paint27_linear)"/>
<path d="M98.8407 46.362C98.8407 46.022 98.9087 45.726 99.0447 45.474C99.1807 45.218 99.3687 45.022 99.6087 44.886C99.8487 44.746 100.123 44.676 100.431 44.676C100.835 44.676 101.167 44.776 101.427 44.976C101.691 45.176 101.861 45.448 101.937 45.792H101.487C101.431 45.556 101.309 45.372 101.121 45.24C100.937 45.104 100.707 45.036 100.431 45.036C100.211 45.036 100.013 45.086 99.8367 45.186C99.6607 45.286 99.5207 45.436 99.4167 45.636C99.3167 45.832 99.2667 46.074 99.2667 46.362C99.2667 46.65 99.3167 46.894 99.4167 47.094C99.5207 47.294 99.6607 47.444 99.8367 47.544C100.013 47.644 100.211 47.694 100.431 47.694C100.707 47.694 100.937 47.628 101.121 47.496C101.309 47.36 101.431 47.172 101.487 46.932H101.937C101.861 47.268 101.691 47.538 101.427 47.742C101.163 47.946 100.831 48.048 100.431 48.048C100.123 48.048 99.8487 47.98 99.6087 47.844C99.3687 47.704 99.1807 47.508 99.0447 47.256C98.9087 47 98.8407 46.702 98.8407 46.362Z" fill="url(#paint28_linear)"/>
<path d="M105.19 44.724V48H104.77V47.424C104.674 47.628 104.526 47.784 104.326 47.892C104.126 48 103.902 48.054 103.654 48.054C103.262 48.054 102.942 47.934 102.694 47.694C102.446 47.45 102.322 47.098 102.322 46.638V44.724H102.736V46.59C102.736 46.946 102.824 47.218 103 47.406C103.18 47.594 103.424 47.688 103.732 47.688C104.048 47.688 104.3 47.588 104.488 47.388C104.676 47.188 104.77 46.894 104.77 46.506V44.724H105.19Z" fill="url(#paint29_linear)"/>
<path d="M106.209 43.56V48H105.789V43.56H106.209Z" fill="url(#paint30_linear)"/>
<path d="M108.234 48.048C107.926 48.048 107.648 47.98 107.4 47.844C107.156 47.704 106.962 47.508 106.818 47.256C106.678 47 106.608 46.702 106.608 46.362C106.608 46.022 106.68 45.726 106.824 45.474C106.968 45.218 107.164 45.022 107.412 44.886C107.66 44.746 107.938 44.676 108.246 44.676C108.554 44.676 108.832 44.746 109.08 44.886C109.332 45.022 109.528 45.218 109.668 45.474C109.812 45.726 109.884 46.022 109.884 46.362C109.884 46.698 109.812 46.994 109.668 47.25C109.524 47.506 109.326 47.704 109.074 47.844C108.822 47.98 108.542 48.048 108.234 48.048ZM108.234 47.682C108.45 47.682 108.65 47.634 108.834 47.538C109.018 47.438 109.166 47.29 109.278 47.094C109.394 46.894 109.452 46.65 109.452 46.362C109.452 46.074 109.396 45.832 109.284 45.636C109.172 45.436 109.024 45.288 108.84 45.192C108.656 45.092 108.456 45.042 108.24 45.042C108.024 45.042 107.824 45.092 107.64 45.192C107.456 45.288 107.308 45.436 107.196 45.636C107.088 45.832 107.034 46.074 107.034 46.362C107.034 46.65 107.088 46.894 107.196 47.094C107.308 47.29 107.454 47.438 107.634 47.538C107.818 47.634 108.018 47.682 108.234 47.682Z" fill="url(#paint31_linear)"/>
<path d="M111.418 48.048C111.042 48.048 110.734 47.962 110.494 47.79C110.258 47.614 110.126 47.376 110.098 47.076H110.53C110.55 47.26 110.636 47.41 110.788 47.526C110.944 47.638 111.152 47.694 111.412 47.694C111.64 47.694 111.818 47.64 111.946 47.532C112.078 47.424 112.144 47.29 112.144 47.13C112.144 47.018 112.108 46.926 112.036 46.854C111.964 46.782 111.872 46.726 111.76 46.686C111.652 46.642 111.504 46.596 111.316 46.548C111.072 46.484 110.874 46.42 110.722 46.356C110.57 46.292 110.44 46.198 110.332 46.074C110.228 45.946 110.176 45.776 110.176 45.564C110.176 45.404 110.224 45.256 110.32 45.12C110.416 44.984 110.552 44.876 110.728 44.796C110.904 44.716 111.104 44.676 111.328 44.676C111.68 44.676 111.964 44.766 112.18 44.946C112.396 45.122 112.512 45.366 112.528 45.678H112.108C112.096 45.486 112.02 45.332 111.88 45.216C111.744 45.096 111.556 45.036 111.316 45.036C111.104 45.036 110.932 45.086 110.8 45.186C110.668 45.286 110.602 45.41 110.602 45.558C110.602 45.686 110.64 45.792 110.716 45.876C110.796 45.956 110.894 46.02 111.01 46.068C111.126 46.112 111.282 46.162 111.478 46.218C111.714 46.282 111.902 46.344 112.042 46.404C112.182 46.464 112.302 46.552 112.402 46.668C112.502 46.784 112.554 46.938 112.558 47.13C112.558 47.306 112.51 47.464 112.414 47.604C112.318 47.74 112.184 47.848 112.012 47.928C111.84 48.008 111.642 48.048 111.418 48.048Z" fill="url(#paint32_linear)"/>
<defs>
<linearGradient id="paint0_linear" x1="72.5" y1="16" x2="72.5" y2="39" gradientUnits="userSpaceOnUse">
<stop offset="0.130208" stop-color="#36A2C4"/>
<stop offset="1" stop-color="#026AA2"/>
</linearGradient>
<linearGradient id="paint1_linear" x1="72.5" y1="16" x2="72.5" y2="39" gradientUnits="userSpaceOnUse">
<stop offset="0.130208" stop-color="#36A2C4"/>
<stop offset="1" stop-color="#026AA2"/>
</linearGradient>
<linearGradient id="paint2_linear" x1="72.5" y1="16" x2="72.5" y2="39" gradientUnits="userSpaceOnUse">
<stop offset="0.130208" stop-color="#36A2C4"/>
<stop offset="1" stop-color="#026AA2"/>
</linearGradient>
<linearGradient id="paint3_linear" x1="72.5" y1="16" x2="72.5" y2="39" gradientUnits="userSpaceOnUse">
<stop offset="0.130208" stop-color="#36A2C4"/>
<stop offset="1" stop-color="#026AA2"/>
</linearGradient>
<linearGradient id="paint4_linear" x1="72.5" y1="16" x2="72.5" y2="39" gradientUnits="userSpaceOnUse">
<stop offset="0.130208" stop-color="#36A2C4"/>
<stop offset="1" stop-color="#026AA2"/>
</linearGradient>
<linearGradient id="paint5_linear" x1="72.5" y1="16" x2="72.5" y2="39" gradientUnits="userSpaceOnUse">
<stop offset="0.130208" stop-color="#36A2C4"/>
<stop offset="1" stop-color="#026AA2"/>
</linearGradient>
<linearGradient id="paint6_linear" x1="14.5" y1="0" x2="14.5" y2="39" gradientUnits="userSpaceOnUse">
<stop offset="0.130208" stop-color="#36A2C4"/>
<stop offset="1" stop-color="#026AA2"/>
</linearGradient>
<linearGradient id="paint7_linear" x1="72.5" y1="41" x2="72.5" y2="50" gradientUnits="userSpaceOnUse">
<stop offset="0.140625" stop-color="#36A2C4"/>
<stop offset="1" stop-color="#026AA1"/>
</linearGradient>
<linearGradient id="paint8_linear" x1="72.5" y1="41" x2="72.5" y2="50" gradientUnits="userSpaceOnUse">
<stop offset="0.140625" stop-color="#36A2C4"/>
<stop offset="1" stop-color="#026AA1"/>
</linearGradient>
<linearGradient id="paint9_linear" x1="72.5" y1="41" x2="72.5" y2="50" gradientUnits="userSpaceOnUse">
<stop offset="0.140625" stop-color="#36A2C4"/>
<stop offset="1" stop-color="#026AA1"/>
</linearGradient>
<linearGradient id="paint10_linear" x1="72.5" y1="41" x2="72.5" y2="50" gradientUnits="userSpaceOnUse">
<stop offset="0.140625" stop-color="#36A2C4"/>
<stop offset="1" stop-color="#026AA1"/>
</linearGradient>
<linearGradient id="paint11_linear" x1="72.5" y1="41" x2="72.5" y2="50" gradientUnits="userSpaceOnUse">
<stop offset="0.140625" stop-color="#36A2C4"/>
<stop offset="1" stop-color="#026AA1"/>
</linearGradient>
<linearGradient id="paint12_linear" x1="72.5" y1="41" x2="72.5" y2="50" gradientUnits="userSpaceOnUse">
<stop offset="0.140625" stop-color="#36A2C4"/>
<stop offset="1" stop-color="#026AA1"/>
</linearGradient>
<linearGradient id="paint13_linear" x1="72.5" y1="41" x2="72.5" y2="50" gradientUnits="userSpaceOnUse">
<stop offset="0.140625" stop-color="#36A2C4"/>
<stop offset="1" stop-color="#026AA1"/>
</linearGradient>
<linearGradient id="paint14_linear" x1="72.5" y1="41" x2="72.5" y2="50" gradientUnits="userSpaceOnUse">
<stop offset="0.140625" stop-color="#36A2C4"/>
<stop offset="1" stop-color="#026AA1"/>
</linearGradient>
<linearGradient id="paint15_linear" x1="72.5" y1="41" x2="72.5" y2="50" gradientUnits="userSpaceOnUse">
<stop offset="0.140625" stop-color="#36A2C4"/>
<stop offset="1" stop-color="#026AA1"/>
</linearGradient>
<linearGradient id="paint16_linear" x1="72.5" y1="41" x2="72.5" y2="50" gradientUnits="userSpaceOnUse">
<stop offset="0.140625" stop-color="#36A2C4"/>
<stop offset="1" stop-color="#026AA1"/>
</linearGradient>
<linearGradient id="paint17_linear" x1="72.5" y1="41" x2="72.5" y2="50" gradientUnits="userSpaceOnUse">
<stop offset="0.140625" stop-color="#36A2C4"/>
<stop offset="1" stop-color="#026AA1"/>
</linearGradient>
<linearGradient id="paint18_linear" x1="72.5" y1="41" x2="72.5" y2="50" gradientUnits="userSpaceOnUse">
<stop offset="0.140625" stop-color="#36A2C4"/>
<stop offset="1" stop-color="#026AA1"/>
</linearGradient>
<linearGradient id="paint19_linear" x1="72.5" y1="41" x2="72.5" y2="50" gradientUnits="userSpaceOnUse">
<stop offset="0.140625" stop-color="#36A2C4"/>
<stop offset="1" stop-color="#026AA1"/>
</linearGradient>
<linearGradient id="paint20_linear" x1="72.5" y1="41" x2="72.5" y2="50" gradientUnits="userSpaceOnUse">
<stop offset="0.140625" stop-color="#36A2C4"/>
<stop offset="1" stop-color="#026AA1"/>
</linearGradient>
<linearGradient id="paint21_linear" x1="72.5" y1="41" x2="72.5" y2="50" gradientUnits="userSpaceOnUse">
<stop offset="0.140625" stop-color="#36A2C4"/>
<stop offset="1" stop-color="#026AA1"/>
</linearGradient>
<linearGradient id="paint22_linear" x1="72.5" y1="41" x2="72.5" y2="50" gradientUnits="userSpaceOnUse">
<stop offset="0.140625" stop-color="#36A2C4"/>
<stop offset="1" stop-color="#026AA1"/>
</linearGradient>
<linearGradient id="paint23_linear" x1="72.5" y1="41" x2="72.5" y2="50" gradientUnits="userSpaceOnUse">
<stop offset="0.140625" stop-color="#36A2C4"/>
<stop offset="1" stop-color="#026AA1"/>
</linearGradient>
<linearGradient id="paint24_linear" x1="72.5" y1="41" x2="72.5" y2="50" gradientUnits="userSpaceOnUse">
<stop offset="0.140625" stop-color="#36A2C4"/>
<stop offset="1" stop-color="#026AA1"/>
</linearGradient>
<linearGradient id="paint25_linear" x1="72.5" y1="41" x2="72.5" y2="50" gradientUnits="userSpaceOnUse">
<stop offset="0.140625" stop-color="#36A2C4"/>
<stop offset="1" stop-color="#026AA1"/>
</linearGradient>
<linearGradient id="paint26_linear" x1="72.5" y1="41" x2="72.5" y2="50" gradientUnits="userSpaceOnUse">
<stop offset="0.140625" stop-color="#36A2C4"/>
<stop offset="1" stop-color="#026AA1"/>
</linearGradient>
<linearGradient id="paint27_linear" x1="72.5" y1="41" x2="72.5" y2="50" gradientUnits="userSpaceOnUse">
<stop offset="0.140625" stop-color="#36A2C4"/>
<stop offset="1" stop-color="#026AA1"/>
</linearGradient>
<linearGradient id="paint28_linear" x1="72.5" y1="41" x2="72.5" y2="50" gradientUnits="userSpaceOnUse">
<stop offset="0.140625" stop-color="#36A2C4"/>
<stop offset="1" stop-color="#026AA1"/>
</linearGradient>
<linearGradient id="paint29_linear" x1="72.5" y1="41" x2="72.5" y2="50" gradientUnits="userSpaceOnUse">
<stop offset="0.140625" stop-color="#36A2C4"/>
<stop offset="1" stop-color="#026AA1"/>
</linearGradient>
<linearGradient id="paint30_linear" x1="72.5" y1="41" x2="72.5" y2="50" gradientUnits="userSpaceOnUse">
<stop offset="0.140625" stop-color="#36A2C4"/>
<stop offset="1" stop-color="#026AA1"/>
</linearGradient>
<linearGradient id="paint31_linear" x1="72.5" y1="41" x2="72.5" y2="50" gradientUnits="userSpaceOnUse">
<stop offset="0.140625" stop-color="#36A2C4"/>
<stop offset="1" stop-color="#026AA1"/>
</linearGradient>
<linearGradient id="paint32_linear" x1="72.5" y1="41" x2="72.5" y2="50" gradientUnits="userSpaceOnUse">
<stop offset="0.140625" stop-color="#36A2C4"/>
<stop offset="1" stop-color="#026AA1"/>
</linearGradient>
</defs>
</svg>
